<svg xmlns="http://www.w3.org/2000/svg" viewBox="0 0 256 256"><g fill="none" stroke-miterlimit="10" font-family="none" font-size="none" font-weight="none" style="mix-blend-mode:normal" text-anchor="none"><path fill="#f55376" d="M197.333 252.8H58.667C28.035 252.8 3.2 227.965 3.2 197.333V58.667C3.2 28.035 28.035 3.2 58.667 3.2h138.666c30.632 0 55.467 24.835 55.467 55.467v138.666c0 30.632-24.835 55.467-55.467 55.467z"/><path fill="#fac8d5" d="M86.4 65.6v102.51c-.548.235-14.657 3.133-20.939 5.13-7.536 2.392-12.154 8.043-13.402 15.163-1.768 10.109 3.786 19.136 13.298 21.674 9.464 2.523 18.706.804 26.59-5.318 6.191-4.805 8.32-11.676 8.32-19.289V97.292L169.6 82.434v71.802c-.548.235-14.657 3.133-20.939 5.13-7.536 2.392-12.154 8.043-13.402 15.163-1.768 10.11 3.786 19.136 13.298 21.674 9.464 2.524 18.706.804 26.59-5.318 6.191-4.798 8.32-11.669 8.32-19.281V44.8z"/><path fill="#fff" d="M100.267 62.626 86.4 65.6v34.667l13.867-2.975zM169.6 47.774v34.667l13.867-2.974V44.8z"/></g></svg>