<svg xmlns="http://www.w3.org/2000/svg" width="300" height="300">
  <rect x="0" y="0" width="300" height="300" style="fill:#c00" rx="60" ry="60"></rect>
  <g transform="translate(-120.832 -1630.565) scale(2.12491)">
    <path style="fill:#fff" d="M 177.264 833.271 C 180.185 838.459 178.374 852.032 171.017 860.571 C 170.528 861.138 162.875 871.336 166.452 874.252 C 169.423 876.674 169.458 877.272 177.996 872.718 C 184.345 869.332 185.841 867.137 180.99 862.211 C 179.105 860.298 176.513 856.469 177.184 856.029 C 179.859 854.278 187.046 859.139 191.192 864.501 C 195.79 870.448 194.932 874.87 188.344 879.183 C 183.602 882.288 165.784 889.839 161.191 886.516 C 148.408 880.602 158.75 863.823 164.501 857.16 C 168.867 851.952 169.083 847.152 169.107 842.853 C 169.129 838.862 172.537 835.636 173.44 833.994 C 170.16 834.431 166.295 835.068 162.594 835.462 C 152.224 836.567 143.508 836.561 155.442 841.826 C 159.384 843.565 162.39 848.11 161.488 854.39 C 160.708 859.819 156.243 865.544 152.577 866.908 C 152.577 866.908 139.354 870.45 140.979 877.882 C 142.182 883.386 152.306 893.268 164.618 903.008 C 168.958 906.442 168.465 908.541 168.465 908.541 L 160.022 908.54 C 160.022 908.54 135.147 893.031 133.282 880.099 C 132.777 876.6 130.182 869.921 142.463 863.018 C 151.448 860.105 153.924 849.999 150.18 846.948 C 146.07 843.706 145.552 845.496 140.778 848.711 C 138.208 850.442 135.735 852.527 135.162 853.029 C 131.421 856.305 128.694 860.598 124.982 863.906 C 123.407 865.309 118.125 871.278 117.818 877.057 C 117.358 885.709 118.387 889.408 122.871 897.38 C 124.301 899.921 126.02 907.05 125.452 908.539 L 117.706 908.534 C 115.648 908.791 112.593 899.749 111.937 898.296 C 107.463 888.393 108.61 875.85 110.05 871.825 C 111.414 868.012 114.174 862.863 117.735 859.256 C 121.297 855.649 123.794 852.989 127.96 848.804 C 139.909 836.803 143.861 837.744 141.041 834.294 C 139.657 832.602 136.678 831.217 136.678 831.217 C 133.492 830.239 128.414 827.815 124.681 823.517 C 119.968 817.701 120.199 806.01 119.902 806.318 C 118.066 808.22 112.475 808.861 105.149 808.861 C 95.002 808.861 94.597 809.028 94.597 813.214 C 91.899 825.45 88.768 834.147 80.855 840.729 C 74.919 845.668 72.272 845.444 68.976 850.828 C 65.518 857.315 78.706 862.355 85.856 856.715 C 87.335 855.548 93.646 851.564 94.608 843.321 C 95.703 833.938 104.02 824.247 106.24 826.771 C 114.121 835.73 107.897 840.477 104.474 849.267 C 99.027 863.255 94.81 865.369 86.305 869.572 C 69.832 877.712 59.369 862.876 56.901 858.626 L 56.901 848.937 C 59.413 844.311 66.503 839.165 74.381 834.008 C 76.485 832.63 79.897 826.636 81.963 820.687 C 86.228 808.412 85.403 808.644 72.134 808.324 C 65.352 808.161 62.181 807.362 56.901 806.398 L 56.901 801.035 C 58.113 798.965 63.104 799.928 88.912 799.928 C 107.172 799.928 116.978 799.012 120.227 800.32 C 122.46 791.146 124.482 789.647 127.85 786.116 C 131.474 782.316 136.189 780.982 138.685 780.655 C 150.903 779.055 152.33 776.268 152.33 771.376 C 152.33 769.572 153.763 767.909 154.648 767.357 L 162.319 767.357 C 163.621 767.357 162.834 769.163 163.701 773.084 C 164.735 777.762 165.766 778.375 175.072 779.847 C 189.79 782.176 193.633 788.02 193.457 807.797 C 193.309 824.269 190.515 830.168 177.264 833.271 Z M 147.782 822.47 C 147.782 820.115 148.418 816.104 149.197 813.556 C 150.389 809.653 149.795 808.724 145.424 807.666 C 142.57 806.975 137.839 807.709 134.912 808.076 C 126.983 809.068 127.383 817.456 135.583 822.825 C 143.488 828 147.782 827.875 147.782 822.47 Z M 179.343 823.4 C 180.378 821.558 181.803 817.62 182.509 814.65 C 183.591 810.094 183.021 809.032 178.863 807.863 C 176.153 807.101 170.888 806.855 167.163 807.317 C 161.094 808.07 160.197 808.914 158.524 815.447 C 156 825.304 157.242 826.75 168.235 826.75 C 175.726 826.75 177.812 826.121 179.343 823.4 Z M 148.419 795.95 C 150.068 790.302 148.157 788.039 141.737 788.039 C 137.544 788.039 135.369 789.308 132.883 793.202 C 128.479 800.105 128.352 799.95 138.419 799.95 C 146.198 799.95 147.391 799.473 148.419 795.95 Z M 181.411 796.217 C 182.383 791.784 177.077 787.998 169.37 787.624 C 162.881 787.31 162.531 787.594 161.857 793.712 L 161.152 800.13 L 170.955 799.668 C 178.747 799.301 180.892 798.593 181.411 796.217 Z M 74.892 788.972 C 67.823 788.391 57.085 784.319 60.588 782.07 C 62.199 781.035 89.437 780.715 110.841 780.997 C 120.552 781.125 124.591 785.063 118.166 788.139 C 114.375 789.953 92.074 790.383 74.892 788.972 Z"></path>
  </g>
</svg>