<svg xmlns="http://www.w3.org/2000/svg" viewBox="0 0 108 108">
  <path fill="#01579B" d="M 35.742 43.171 L 35.982 57.344 C 35.982 57.344 30.3 62.781 28.028 69.593 C 26.987 72.526 26.223 77.834 27.283 82.706 C 28.926 88.953 34.94 93.198 34.94 93.198 L 35.615 94.363 L 35.592 104.955 C 35.592 104.955 35.34 104.902 34.923 104.743 C 32.718 103.902 26.037 100.089 20.839 92.137 C 18.563 88.124 16.852 82.972 16.539 76.428 C 16.54 64.468 22.834 55.659 35.742 43.171 L 35.742 43.171 Z" style="stroke-width: 1.1;"></path>
  <path fill="#19A6E6" d="M 34.931 43.982 L 54.253 24.489 L 54.437 38.721 L 34.931 58.404 L 34.931 43.982 Z M 34.94 93.197 C 34.94 93.197 39.066 96.136 42.296 96.686 C 45.527 97.236 47.229 97.153 49.378 96.858 C 50.725 96.673 52.793 96.007 54.205 95.303 L 54.185 106.051 C 54.185 106.051 51.601 107.427 47.832 107.48 C 45.956 107.506 44.291 107.48 41.85 107.034 C 39.409 106.587 37.634 106.036 34.928 104.748 L 34.93 94.863 L 34.94 93.197 Z" style="stroke-width: 1.1;"></path>
  <path fill="#29B6F6" d="M 53.817 24.869 L 75.554 3.022 L 75.635 17.524 L 53.817 39.286 L 53.817 24.869 Z M 68.431 84.186 C 70.783 81.867 73.151 79.566 75.535 77.282 L 75.62 90.335 C 75.62 90.335 67.818 97.812 66.371 98.898 C 64.925 99.984 58.969 104.69 53.79 106.167 L 53.79 95.552 C 53.79 95.552 58.486 92.735 60.343 91.427 C 62.2 90.119 67.429 85.171 68.431 84.186 Z M 75.542 52.6 L 75.612 63.086 L 59.378 79.211 C 59.378 79.211 57.385 81.252 55.116 78.801 C 53.01 76.843 54.843 74.669 54.843 74.669 L 75.542 52.6 L 75.542 52.6 Z M 75.533 29.558 L 75.556 39.961 L 59.768 55.634 C 59.768 55.634 57.773 57.714 55.345 55.422 C 52.916 53.13 55.275 50.939 55.275 50.939 L 75.533 29.558 L 75.533 29.558 Z" style="stroke-width: 1.1;"></path>
  <path fill="#54C5F8" d="M 75.136 3.496 C 75.136 3.496 80.165 -2.986 85.027 3.161 C 89.607 9.28 94.81 15.901 88.63 29.76 C 88.686 29.704 88.323 30.29 88.657 30.709 C 88.657 30.737 94.664 40.069 88.434 52.587 C 88.319 52.587 87.904 53.257 88.35 53.732 C 88.35 53.705 96.314 66.724 85.724 79.771 C 79.047 86.811 75.129 90.836 75.129 90.836 L 75.129 77.668 L 79.131 73.29 C 79.131 73.29 85.055 66.976 80.416 58.286 L 75.129 63.567 L 75.191 52.951 L 80.215 47.922 C 80.215 47.922 83.873 43.479 79.913 35.684 L 75.129 40.378 L 75.129 29.957 L 79.237 25.625 C 79.237 25.625 83.929 20.178 79.544 13.471 L 75.157 18.007 L 75.157 3.496 L 75.136 3.496 L 75.136 3.496 Z" style="stroke-width: 1.1;"></path>
</svg>