<svg xmlns="http://www.w3.org/2000/svg" xmlns:xlink="http://www.w3.org/1999/xlink"><symbol viewBox="0 0 256 256" id="applemusic"><g fill="none" stroke-miterlimit="10" font-family="none" font-size="none" font-weight="none" style="mix-blend-mode:normal" text-anchor="none"><path fill="#f55376" d="M197.333 252.8H58.667C28.035 252.8 3.2 227.965 3.2 197.333V58.667C3.2 28.035 28.035 3.2 58.667 3.2h138.666c30.632 0 55.467 24.835 55.467 55.467v138.666c0 30.632-24.835 55.467-55.467 55.467z"/><path fill="#fac8d5" d="M86.4 65.6v102.51c-.548.235-14.657 3.133-20.939 5.13-7.536 2.392-12.154 8.043-13.402 15.163-1.768 10.109 3.786 19.136 13.298 21.674 9.464 2.523 18.706.804 26.59-5.318 6.191-4.805 8.32-11.676 8.32-19.289V97.292L169.6 82.434v71.802c-.548.235-14.657 3.133-20.939 5.13-7.536 2.392-12.154 8.043-13.402 15.163-1.768 10.11 3.786 19.136 13.298 21.674 9.464 2.524 18.706.804 26.59-5.318 6.191-4.798 8.32-11.669 8.32-19.281V44.8z"/><path fill="#fff" d="M100.267 62.626 86.4 65.6v34.667l13.867-2.975zM169.6 47.774v34.667l13.867-2.974V44.8z"/></g></symbol><symbol fill="#3245DF" viewBox="0 0 64 64" id="baidu"><path d="M11.518 33.724c6.957-1.495 6.012-9.8 5.802-11.63-.342-2.803-3.638-7.7-8.113-7.313-5.63.505-6.454 8.64-6.454 8.64-.753 3.763 1.823 11.8 8.765 10.303zm12.917-13.947c3.842 0 6.948-4.423 6.948-9.892C31.383 4.422 28.277 0 24.435 0s-6.952 4.422-6.952 9.885c0 5.47 3.114 9.892 6.952 9.892zm16.55.653c5.138.667 8.44-4.815 9.097-8.97.67-4.15-2.644-8.97-6.28-9.798-3.645-.835-8.195 5.002-8.6 8.808-.496 4.653.666 9.3 5.793 9.96zm20.363 6.977c0-1.987-1.65-7.974-7.775-7.974-6.137 0-6.954 5.65-6.954 9.643 0 3.812.32 9.132 7.94 8.963s6.787-8.633 6.787-10.633zM18.906 48.2c-.203.585-.66 2.08-.265 3.382a3.844 3.844 0 0 0 3.314 3.052H25.6v-8.908h-3.902a4.28 4.28 0 0 0-2.791 2.473zm34.668-3.334s-7.948-6.148-12.588-12.795c-6.288-9.8-15.224-5.8-18.212-.828-2.975 4.983-7.612 8.135-8.272 8.97-.666.822-9.6 5.643-7.615 14.452 1.98 8.802 8.945 8.633 8.945 8.633a39.04 39.04 0 0 0 11.088-.828 23.39 23.39 0 0 1 11.085.33s13.913 4.66 17.72-4.312-2.15-13.622-2.15-13.622zm-23.807 13.35h-9.045c-3.905-.778-5.462-3.444-5.66-3.9-.192-.46-1.298-2.603-.713-6.248 1.688-5.463 6.504-5.855 6.504-5.855h4.814v-5.918l4.1.062zm16.846-.062h-10.4C32.18 57.114 32 54.248 32 54.248v-11.5l4.223-.068v10.347c.258 1.103 1.63 1.3 1.63 1.3h4.3v-11.58h4.5z"/></symbol><symbol viewBox="0 0 1131 1024" id="bilibili"><path fill="#20B0E3" d="M236 8a81 81 0 0 1 68 0 168 168 0 0 1 42 30l161 142h116L784 38a169 169 0 0 1 42-30 81 81 0 0 1 107 66 81 81 0 0 1-18 54 451 451 0 0 1-35 33 233 233 0 0 1-23 18h101a171 171 0 0 1 118 53 172 172 0 0 1 55 119v463a327 327 0 0 1-5 71 179 179 0 0 1-80 112 173 173 0 0 1-93 26H213a342 342 0 0 1-72-4 178 178 0 0 1-112-80 173 173 0 0 1-27-93V387a361 361 0 0 1 0-66 177 177 0 0 1 161-144h106c-17-12-32-27-47-39A82 82 0 0 1 236 8m-19 312a81 81 0 0 0-64 59 109 109 0 0 0 0 30v382a81 81 0 0 0 56 80 106 106 0 0 0 35 6h655a81 81 0 0 0 77-48 113 113 0 0 0 8-53V421a135 135 0 0 0 0-38 81 81 0 0 0-53-55 130 130 0 0 0-50-8H255a269 269 0 0 0-38 0z"/><path fill="#20B0E3" d="M349 446a79 79 0 0 1 84 78v81a80 80 0 0 1-148 42 105 105 0 0 1-10-55v-80a81 81 0 0 1 70-68zm417 0a81 81 0 0 1 86 75v82a94 94 0 0 1-12 53 81 81 0 0 1-133 0 96 96 0 0 1-13-57v-81a81 81 0 0 1 70-71z"/></symbol><symbol viewBox="0 0 32 32" id="bing"><path fill="#008373" d="m6.1 0 6.392 2.25v22.5l9.004-5.198-4.414-2.07-2.785-6.932 14.186 4.984v7.246L12.497 32 6.1 28.442z"/></symbol><symbol viewBox="0 0 16 16" id="danbooru"><path fill="#a4815f" stroke="black" d="M1.5 14.5V4.25L4.25 1.5H14.5v10.25l-2.75 2.75z"/><path fill="none" stroke="black" d="M1.5 4.5h10v10"/><path stroke="black" d="m14.5 1.5-3 3"/></symbol><symbol fill="#fff" viewBox="-108 -108 216 216" id="duckduckgo"><circle r="108" fill="#d53"/><circle r="96" fill="none" stroke="#fff" stroke-width="7"/><path fill="#ddd" d="M-32-55C-62-48-51-6-51-6l19 93 7 3M-39-73h-8l11 4s-11 0-11 7c24-1 35 5 35 5"/><path d="M25 95S1 57 1 32c0-47 31-7 31-44S1-58 1-58c-15-19-44-15-44-15l7 4s-7 2-9 4 19-3 28 5c-37 3-31 33-31 33l21 120"/><path fill="#fc0" d="m25-1 38-10c34 5-29 24-33 23C0 7 9 32 45 24s9 20-24 9C-26 20-1-3 25-1"/><path fill="#6b5" d="m15 78 2-3c22 8 23 11 22-9s0-20-23-3c0-5-13-3-15 0-21-9-23-12-22 2 2 29 1 24 21 14"/><path fill="#4a4" d="M-1 67v12c1 2 17 2 17-2s-8 3-13 1-2-13-2-13"/><path fill="#148" d="M-23-32c-5-6-18-1-15 7 1-4 8-10 15-7m32 0c1-6 11-7 14-1-4-2-10-2-14 1m-33 16a2 2 0 1 1 0 1m-8 3a7 7 0 1 0 0-1m52-6a2 2 0 1 1 0 1m-6 3a6 6 0 1 0 0-1"/></symbol><symbol viewBox="0 0 100 100" id="github"><path fill="var(--github-svg-color)" fill-rule="evenodd" d="M48.854 0C21.839 0 0 22 0 49.217c0 21.756 13.993 40.172 33.405 46.69 2.427.49 3.316-1.059 3.316-2.362 0-1.141-.08-5.052-.08-9.127-13.59 2.934-16.42-5.867-16.42-5.867-2.184-5.704-5.42-7.17-5.42-7.17-4.448-3.015.324-3.015.324-3.015 4.934.326 7.523 5.052 7.523 5.052 4.367 7.496 11.404 5.378 14.235 4.074.404-3.178 1.699-5.378 3.074-6.6-10.839-1.141-22.243-5.378-22.243-24.283 0-5.378 1.94-9.778 5.014-13.2-.485-1.222-2.184-6.275.486-13.038 0 0 4.125-1.304 13.426 5.052a46.97 46.97 0 0 1 12.214-1.63c4.125 0 8.33.571 12.213 1.63 9.302-6.356 13.427-5.052 13.427-5.052 2.67 6.763.97 11.816.485 13.038 3.155 3.422 5.015 7.822 5.015 13.2 0 18.905-11.404 23.06-22.324 24.283 1.78 1.548 3.316 4.481 3.316 9.126 0 6.6-.08 11.897-.08 13.526 0 1.304.89 2.853 3.316 2.364 19.412-6.52 33.405-24.935 33.405-46.691C97.707 22 75.788 0 48.854 0z" clip-rule="evenodd"/></symbol><symbol viewBox="0 0 48 48" id="google"><path fill="#4285F4" d="M45.12 24.5c0-1.56-.14-3.06-.4-4.5H24v8.51h11.84c-.51 2.75-2.06 5.08-4.39 6.64v5.52h7.11c4.16-3.83 6.56-9.47 6.56-16.17z"/><path fill="#34A853" d="M24 46c5.94 0 10.92-1.97 14.56-5.33l-7.11-5.52c-1.97 1.32-4.49 2.1-7.45 2.1-5.73 0-10.58-3.87-12.31-9.07H4.34v5.7C7.96 41.07 15.4 46 24 46z"/><path fill="#FBBC05" d="M11.69 28.18C11.25 26.86 11 25.45 11 24s.25-2.86.69-4.18v-5.7H4.34A21.991 21.991 0 0 0 2 24c0 3.55.85 6.91 2.34 9.88l7.35-5.7z"/><path fill="#EA4335" d="M24 10.75c3.23 0 6.13 1.11 8.41 3.29l6.31-6.31C34.91 4.18 29.93 2 24 2 15.4 2 7.96 6.93 4.34 14.12l7.35 5.7c1.73-5.2 6.58-9.07 12.31-9.07z"/><path fill="none" d="M2 2h44v44H2z"/></symbol><symbol viewBox="0 0 1024 1024" id="jd"><path fill="#CB111A" d="M642 827H457V197h185c153 0 278 141 278 315S795 827 642 827zm0-556H530v481h112c113 0 203-109 203-242s-92-239-203-239zM142 827h-38v-74h37c82 0 148-65 148-148V197h73v408c2 122-98 222-220 222z"/></symbol><symbol viewBox="0 0 1024 1024" id="music"><path fill="#EA5D5B" d="M1023.97 511.946A511.778 511.778 0 1 1 626.12 12.873a503.768 503.768 0 0 1 82.856 26.376 512.33 512.33 0 0 1 314.993 472.697z"/><path fill="#F5B4B5" d="M708.976 39.25v472.696H626.12V12.873a503.768 503.768 0 0 1 82.856 26.376z"/><path fill="#FAD8D7" d="M511.916 709.007a197.06 197.06 0 1 1 197.06-197.06 197.199 197.199 0 0 1-197.06 197.06zm0-311.265A114.204 114.204 0 1 0 626.12 511.946a114.342 114.342 0 0 0-114.204-114.204z"/></symbol><symbol viewBox="0 0 1024 1024" id="reddit"><path fill="#FF4500" d="M662 683c-35 0-65-29-65-64s30-64 65-64 63 29 63 64-28 64-63 64m13 125c-35 31-88 45-162 45h-2c-74 0-127-14-162-45a22 22 0 0 1 0-33 30 30 0 0 1 38 0c24 21 65 31 124 31h2c59 0 100-10 124-31a30 30 0 0 1 38 0 22 22 0 0 1 0 33M299 619c0-35 29-64 64-64s64 29 64 64a64 64 0 0 1-64 64c-35 0-64-29-64-64m554-448a43 43 0 0 1 0 85 43 43 0 0 1 0-85m171 353c0-71-55-128-123-128-29 0-56 10-78 28-75-49-170-78-272-85l53-175 147 36c3 56 48 100 102 100 57 0 103-49 103-108S910 85 853 85c-39 0-74 24-91 58l-170-41a28 28 0 0 0-33 19l-66 218c-110 2-214 32-294 84a119 119 0 0 0-76-27C55 396 0 453 0 524c0 43 21 82 53 105a234 234 0 0 0-2 31c0 88 50 170 139 231 86 58 200 90 320 90s234-32 320-90c89-61 139-143 139-231l-2-28a129 129 0 0 0 57-108"/></symbol><symbol viewBox="0 0 1024 1024" id="sogou"><path fill="#F14919" d="M716.843 970.24 759.04 1024c66.603-28.843 124.843-69.12 172.843-121.643l-40.363-56.234A439.979 439.979 0 0 1 717.44 970.24h-.597zM512 947.157c-246.4 0-446.08-197.077-446.08-441.6C65.92 262.4 265.6 65.28 512 65.28s446.123 198.4 446.123 441.6c0 108.8-40.363 208.683-106.966 285.44l40.32 53.803C972.843 756.437 1024 637.397 1024 506.88 1024 225.92 794.88 0 512 0S0 226.603 0 505.6c0 280.32 229.12 506.88 512 506.88 72.96 0 142.08-14.763 204.843-42.24l-41.003-53.76c-51.2 19.2-106.24 30.677-163.84 30.677zm256-407.594c-96-79.36-227.84-89.643-332.843-151.723-32-20.437-6.314-59.52 25.686-60.8 115.157-19.2 229.077 26.88 336.597 64l6.443-113.28c-134.443-48.64-280.32-80-422.443-57.6-51.2 12.8-102.4 28.8-138.837 66.56-49.963 51.2-41.003 143.36 16.597 184.32 95.403 74.88 220.843 85.803 325.163 143.36 40.96 16.64 23.68 71.68-16.683 75.52-124.8 23.68-247.68-30.763-355.2-89.6-1.28 43.52-2.56 85.76-2.56 128 136.32 60.117 288 88.277 435.2 65.237 49.92-9.6 101.12-25.6 137.6-62.037 52.437-51.2 47.403-149.803-14.08-192H768z"/></symbol><symbol viewBox="0 0 1024 1024" id="stackoverflow"><path fill="#BCBBBB" d="M765 862V622h79v320H125V622h79v240z"/><path fill="#F48023" d="m292 599 392 82 16-79-391-82-17 79zm52-186 363 168 33-72-363-170-33 74zm101-179 307 256 51-61-308-256-50 61zM644 45l-65 48 239 321 64-48L644 45zM284 781h400v-79H284v79z"/></symbol><symbol viewBox="0 0 1024 1024" id="taobao"><path fill="#FD7E2B" d="M349 248c35-59 47-118 47-118l101 40-30 57s8 7 33 4 193-88 308-68c116 20 187 112 187 184v344s-12 105-102 142c-89 37-225 9-225 9l7-57s82 19 132 2c52-16 66-56 66-56V319s-7-42-55-71c-47-29-71-26-122-19-51 8-129 44-129 44l-43 87h295v59H638v74h188v51l-184 7v140l88-38-8-61 72-15 52 140-87 40-11-49s-165 70-231 75c-66 6-132-10-163-55-32-46-24-137-24-137l117 3s-9 52 14 85 76 24 76 24V548l-182-6v-49h184l-2-74-56-11s-47 73-79 71c-30-2-34-44-34-44l99-125-54-5-82 97-62-55s45-40 80-99zm-209 77-62 89s132 66 144 120c10 53-182 213-182 213l138 101s142-252 131-334c-11-84-169-189-169-189zm74-37c45 0 81-37 81-83 0-45-36-82-81-82s-81 37-81 82c0 46 36 83 81 83z"/></symbol><symbol viewBox="0 0 1024 1024" id="twitter"><path fill="#55ACEE" d="M1024 186a410 410 0 0 1-121 34 215 215 0 0 0 93-119 414 414 0 0 1-134 52 207 207 0 0 0-153-68 213 213 0 0 0-205 265c-174-9-329-95-433-225a219 219 0 0 0-28 108c0 75 37 141 93 179a206 206 0 0 1-95-27v3c0 105 73 192 169 211a200 200 0 0 1-56 8c-13 0-26-1-39-4 27 86 104 148 196 150A415 415 0 0 1 0 842a585 585 0 0 0 322 97c387 0 598-329 598-613l-1-28c41-31 77-68 105-112"/></symbol><symbol viewBox="0 0 1024 1024" id="weibo"><path fill="#FFF" d="M382 699c-8 0-16 7-17 17-1 9 5 16 14 16 8 0 16-8 18-17 0-10-6-17-15-16zm-58 10c-27 1-51 25-55 53-3 28 15 51 42 50 28 0 53-24 56-53s-16-51-43-50z"/><path fill="#FFF" d="M766 674c-12-128-183-216-383-197C184 496 32 615 44 743c12 127 184 215 383 196 200-19 352-138 339-265zm-251 49c-9 83-89 151-176 151-83 0-139-65-127-143 11-76 84-141 165-145 84-5 147 56 138 137z"/><path fill="#E79014" d="M1022 314A318 318 0 0 0 735 43c-19-2-38 10-40 29-3 18 10 36 28 40 68 15 197 35 231 226 3 19 19 40 43 34 17-3 33-13 25-58zm-302-53a24 24 0 0 0-27 18c-4 13 3 28 17 31 28 6 42 25 46 46 0 0 4 14 17 18 14 4 38-6 31-32-7-36-43-74-84-81z"/><path fill="#E79014" d="M738 160c-30-5-44 17-44 34s12 29 35 35c59 17 98 43 108 112 3 20 22 31 35 31 18 0 32-15 32-33v-2c-11-88-77-161-166-177z"/><path fill="#D62629" d="M732 697c-12 125-189 224-381 219-178-4-296-98-277-207 20-105 165-196 336-206 183-11 333 74 322 194zm-28-198c-7 0-10 1-12-2l4-14c11-27 28-82-7-113-23-20-120-36-222 36-5 3-14 11-18 9-4-1-5-6-6-16-3-50 39-191-71-179C256 239 98 424 53 513c-159 317 71 445 297 452 245 7 494-132 526-318 22-124-124-149-172-148z"/><path fill="#030000" d="M377 586c-81 4-154 69-165 145-12 78 44 143 127 143 87 0 167-68 176-151 9-81-54-142-138-137zm-10 173c-3 29-28 53-56 53-27 1-45-22-42-50 4-28 28-52 55-53s46 21 43 50zm12-27c-9 0-15-7-14-16 1-10 9-17 17-17 9-1 15 6 15 16-2 9-10 17-18 17z"/></symbol><symbol viewBox="0 0 512 512" id="wikipedia"><rect width="512" height="512" fill="#fff" rx="64" ry="64"/><path fill="#090909" d="M456 117h-83l-6 1v8l4 2 3 1h8c8 1 11 3 14 6s4 9 1 16l-73 191-2-1-47-104 1-3 38-78 11-19c4-6 6-7 17-8 2 0 3-1 3-3v-8l-1-1h-66v11l2 1h3c9 1 13 3 14 5 2 3 3 5-2 17l-29 64-27-59c-8-19-11-25 2-26l4-1c3 0 2-1 2-3v-9h-71v9c0 2 2 3 5 3 13 2 12 3 24 30l8 16 27 59 8 20-40 87h-2s-62-144-80-192l-3-11c0-5 4-8 12-8l12-1c3 0 7-1 7-3v-8l-4-1H59l-3 1v8c0 2 2 3 5 3 10 1 16 2 19 5s6 10 11 21c22 60 70 166 94 227 6 16 15 19 25-1 11-21 32-69 48-104l44 104c7 17 16 19 25 1l90-226c3-8 7-15 12-19 5-5 13-7 24-8 2 0 3-1 3-3v-9z"/></symbol><symbol viewBox="0 0 1024 1024" id="youtube"><path fill="#DC2217" d="M1014 307s-10-70-41-101c-39-41-83-41-103-44-143-10-358-10-358-10s-215 0-358 10c-20 3-64 3-103 44-31 31-41 101-41 101S0 390 0 473v78c0 83 10 165 10 165s10 71 41 102c39 41 90 40 113 44 82 8 348 10 348 10s215 0 358-11c20-2 64-2 103-43 31-31 41-102 41-102s10-82 10-165v-78c0-83-10-166-10-166z"/><path fill="#FFF" d="M406 645V357l277 144-277 144z"/></symbol><symbol viewBox="0 0 1024 1024" id="zhihu"><path fill="#0066FF" d="m539 770-76 48-96-151c-20 63-53 120-97 173-18 21-37 41-58 62l-40 37-64-64 42-39c19-18 36-35 51-54 57-69 92-145 97-236H118v-90h180V275h-39c-31 58-70 101-118 129l-46-77c62-38 109-117 137-242l88 20c-7 28-14 55-22 80h203v90H388v181h113v90H397l142 224zm173-3 50-41h77V275H659v451h33l20 41zM569 185h360v632H794l-113 90-45-90h-67V185z"/></symbol></svg>