<svg xmlns="http://www.w3.org/2000/svg" xmlns:xlink="http://www.w3.org/1999/xlink"><symbol viewBox="0 0 361 361" id="applemusic"><linearGradient id="aa" x1="180" x2="180" y1="358.605" y2="7.759" gradientUnits="userSpaceOnUse"><stop offset="0" stop-color="#fa233b"/><stop offset="1" stop-color="#fb5c74"/></linearGradient><path fill="url(#aa)" fill-rule="evenodd" d="M360 112.61c0-4.3 0-8.6-.02-12.9-.02-3.62-.06-7.24-.16-10.86-.21-7.89-.68-15.84-2.08-23.64-1.42-7.92-3.75-15.29-7.41-22.49a75.633 75.633 0 0 0-33.06-33.05c-7.19-3.66-14.56-5.98-22.47-7.41C287 .86 279.04.39 271.15.18c-3.62-.1-7.24-.14-10.86-.16-4.3-.02-8.6-.02-12.9-.02H112.61c-4.3 0-8.6 0-12.9.02-3.62.02-7.24.06-10.86.16C80.96.4 73 .86 65.2 2.27c-7.92 1.42-15.28 3.75-22.47 7.41A75.633 75.633 0 0 0 9.67 42.73c-3.66 7.2-5.99 14.57-7.41 22.49C.86 73.02.39 80.98.18 88.86.08 92.48.04 96.1.02 99.72 0 104.01 0 108.31 0 112.61v134.77c0 4.3 0 8.6.02 12.9.02 3.62.06 7.24.16 10.86.21 7.89.68 15.84 2.08 23.64 1.42 7.92 3.75 15.29 7.41 22.49a75.633 75.633 0 0 0 33.06 33.05c7.19 3.66 14.56 5.98 22.47 7.41 7.8 1.4 15.76 1.87 23.65 2.08 3.62.1 7.24.14 10.86.16 4.3.03 8.6.02 12.9.02h134.77c4.3 0 8.6 0 12.9-.02 3.62-.02 7.24-.06 10.86-.16 7.89-.21 15.85-.68 23.65-2.08 7.92-1.42 15.28-3.75 22.47-7.41a75.633 75.633 0 0 0 33.06-33.05c3.66-7.2 5.99-14.57 7.41-22.49 1.4-7.8 1.87-15.76 2.08-23.64.1-3.62.14-7.24.16-10.86.03-4.3.02-8.6.02-12.9V112.61z" clip-rule="evenodd"/><path fill="#fff" fill-rule="evenodd" d="M254.5 55c-.87.08-8.6 1.45-9.53 1.64l-107 21.59-.04.01c-2.79.59-4.98 1.58-6.67 3-2.04 1.71-3.17 4.13-3.6 6.95-.09.6-.24 1.82-.24 3.62v133.92c0 3.13-.25 6.17-2.37 8.76s-4.74 3.37-7.81 3.99l-6.99 1.41c-8.84 1.78-14.59 2.99-19.8 5.01-4.98 1.93-8.71 4.39-11.68 7.51-5.89 6.17-8.28 14.54-7.46 22.38.7 6.69 3.71 13.09 8.88 17.82 3.49 3.2 7.85 5.63 12.99 6.66 5.33 1.07 11.01.7 19.31-.98 4.42-.89 8.56-2.28 12.5-4.61 3.9-2.3 7.24-5.37 9.85-9.11 2.62-3.75 4.31-7.92 5.24-12.35.96-4.57 1.19-8.7 1.19-13.26V142.81c0-6.22 1.76-7.86 6.78-9.08 0 0 88.94-17.94 93.09-18.75 5.79-1.11 8.52.54 8.52 6.61v79.29c0 3.14-.03 6.32-2.17 8.92-2.12 2.59-4.74 3.37-7.81 3.99l-6.99 1.41c-8.84 1.78-14.59 2.99-19.8 5.01-4.98 1.93-8.71 4.39-11.68 7.51-5.89 6.17-8.49 14.54-7.67 22.38.7 6.69 3.92 13.09 9.09 17.82 3.49 3.2 7.85 5.56 12.99 6.6 5.33 1.07 11.01.69 19.31-.98 4.42-.89 8.56-2.22 12.5-4.55 3.9-2.3 7.24-5.37 9.85-9.11 2.62-3.75 4.31-7.92 5.24-12.35.96-4.57 1-8.7 1-13.26V64.46c.02-6.16-3.23-9.96-9.02-9.46z" clip-rule="evenodd"/></symbol><symbol fill="#3245DF" viewBox="0 0 64 64" id="baidu"><path d="M11.518 33.724c6.957-1.495 6.012-9.8 5.802-11.63-.342-2.803-3.638-7.7-8.113-7.313-5.63.505-6.454 8.64-6.454 8.64-.753 3.763 1.823 11.8 8.765 10.303zm12.917-13.947c3.842 0 6.948-4.423 6.948-9.892C31.383 4.422 28.277 0 24.435 0s-6.952 4.422-6.952 9.885c0 5.47 3.114 9.892 6.952 9.892zm16.55.653c5.138.667 8.44-4.815 9.097-8.97.67-4.15-2.644-8.97-6.28-9.798-3.645-.835-8.195 5.002-8.6 8.808-.496 4.653.666 9.3 5.793 9.96zm20.363 6.977c0-1.987-1.65-7.974-7.775-7.974-6.137 0-6.954 5.65-6.954 9.643 0 3.812.32 9.132 7.94 8.963s6.787-8.633 6.787-10.633zM18.906 48.2c-.203.585-.66 2.08-.265 3.382a3.844 3.844 0 0 0 3.314 3.052H25.6v-8.908h-3.902a4.28 4.28 0 0 0-2.791 2.473zm34.668-3.334s-7.948-6.148-12.588-12.795c-6.288-9.8-15.224-5.8-18.212-.828-2.975 4.983-7.612 8.135-8.272 8.97-.666.822-9.6 5.643-7.615 14.452 1.98 8.802 8.945 8.633 8.945 8.633a39.04 39.04 0 0 0 11.088-.828 23.39 23.39 0 0 1 11.085.33s13.913 4.66 17.72-4.312-2.15-13.622-2.15-13.622zm-23.807 13.35h-9.045c-3.905-.778-5.462-3.444-5.66-3.9-.192-.46-1.298-2.603-.713-6.248 1.688-5.463 6.504-5.855 6.504-5.855h4.814v-5.918l4.1.062zm16.846-.062h-10.4C32.18 57.114 32 54.248 32 54.248v-11.5l4.223-.068v10.347c.258 1.103 1.63 1.3 1.63 1.3h4.3v-11.58h4.5z"/></symbol><symbol viewBox="0 0 1131 1024" id="bilibili"><path fill="#20B0E3" d="M236 8a81 81 0 0 1 68 0 168 168 0 0 1 42 30l161 142h116L784 38a169 169 0 0 1 42-30 81 81 0 0 1 107 66 81 81 0 0 1-18 54 451 451 0 0 1-35 33 233 233 0 0 1-23 18h101a171 171 0 0 1 118 53 172 172 0 0 1 55 119v463a327 327 0 0 1-5 71 179 179 0 0 1-80 112 173 173 0 0 1-93 26H213a342 342 0 0 1-72-4 178 178 0 0 1-112-80 173 173 0 0 1-27-93V387a361 361 0 0 1 0-66 177 177 0 0 1 161-144h106c-17-12-32-27-47-39A82 82 0 0 1 236 8m-19 312a81 81 0 0 0-64 59 109 109 0 0 0 0 30v382a81 81 0 0 0 56 80 106 106 0 0 0 35 6h655a81 81 0 0 0 77-48 113 113 0 0 0 8-53V421a135 135 0 0 0 0-38 81 81 0 0 0-53-55 130 130 0 0 0-50-8H255a269 269 0 0 0-38 0z"/><path fill="#20B0E3" d="M349 446a79 79 0 0 1 84 78v81a80 80 0 0 1-148 42 105 105 0 0 1-10-55v-80a81 81 0 0 1 70-68zm417 0a81 81 0 0 1 86 75v82a94 94 0 0 1-12 53 81 81 0 0 1-133 0 96 96 0 0 1-13-57v-81a81 81 0 0 1 70-71z"/></symbol><symbol viewBox="0 0 32 32" id="bing"><path fill="#008373" d="m6.1 0 6.392 2.25v22.5l9.004-5.198-4.414-2.07-2.785-6.932 14.186 4.984v7.246L12.497 32 6.1 28.442z"/></symbol><symbol viewBox="0 0 16 16" id="danbooru"><path fill="#a4815f" stroke="black" d="M1.5 14.5V4.25L4.25 1.5H14.5v10.25l-2.75 2.75z"/><path fill="none" stroke="black" d="M1.5 4.5h10v10"/><path stroke="black" d="m14.5 1.5-3 3"/></symbol><symbol fill="#fff" viewBox="-108 -108 216 216" id="duckduckgo"><circle r="108" fill="#d53"/><circle r="96" fill="none" stroke="#fff" stroke-width="7"/><path fill="#ddd" d="M-32-55C-62-48-51-6-51-6l19 93 7 3M-39-73h-8l11 4s-11 0-11 7c24-1 35 5 35 5"/><path d="M25 95S1 57 1 32c0-47 31-7 31-44S1-58 1-58c-15-19-44-15-44-15l7 4s-7 2-9 4 19-3 28 5c-37 3-31 33-31 33l21 120"/><path fill="#fc0" d="m25-1 38-10c34 5-29 24-33 23C0 7 9 32 45 24s9 20-24 9C-26 20-1-3 25-1"/><path fill="#6b5" d="m15 78 2-3c22 8 23 11 22-9s0-20-23-3c0-5-13-3-15 0-21-9-23-12-22 2 2 29 1 24 21 14"/><path fill="#4a4" d="M-1 67v12c1 2 17 2 17-2s-8 3-13 1-2-13-2-13"/><path fill="#148" d="M-23-32c-5-6-18-1-15 7 1-4 8-10 15-7m32 0c1-6 11-7 14-1-4-2-10-2-14 1m-33 16a2 2 0 1 1 0 1m-8 3a7 7 0 1 0 0-1m52-6a2 2 0 1 1 0 1m-6 3a6 6 0 1 0 0-1"/></symbol><symbol viewBox="0 0 100 100" id="github"><path fill="var(--github-svg-color)" fill-rule="evenodd" d="M48.854 0C21.839 0 0 22 0 49.217c0 21.756 13.993 40.172 33.405 46.69 2.427.49 3.316-1.059 3.316-2.362 0-1.141-.08-5.052-.08-9.127-13.59 2.934-16.42-5.867-16.42-5.867-2.184-5.704-5.42-7.17-5.42-7.17-4.448-3.015.324-3.015.324-3.015 4.934.326 7.523 5.052 7.523 5.052 4.367 7.496 11.404 5.378 14.235 4.074.404-3.178 1.699-5.378 3.074-6.6-10.839-1.141-22.243-5.378-22.243-24.283 0-5.378 1.94-9.778 5.014-13.2-.485-1.222-2.184-6.275.486-13.038 0 0 4.125-1.304 13.426 5.052a46.97 46.97 0 0 1 12.214-1.63c4.125 0 8.33.571 12.213 1.63 9.302-6.356 13.427-5.052 13.427-5.052 2.67 6.763.97 11.816.485 13.038 3.155 3.422 5.015 7.822 5.015 13.2 0 18.905-11.404 23.06-22.324 24.283 1.78 1.548 3.316 4.481 3.316 9.126 0 6.6-.08 11.897-.08 13.526 0 1.304.89 2.853 3.316 2.364 19.412-6.52 33.405-24.935 33.405-46.691C97.707 22 75.788 0 48.854 0z" clip-rule="evenodd"/></symbol><symbol viewBox="0 0 48 48" id="google"><path fill="#4285F4" d="M45.12 24.5c0-1.56-.14-3.06-.4-4.5H24v8.51h11.84c-.51 2.75-2.06 5.08-4.39 6.64v5.52h7.11c4.16-3.83 6.56-9.47 6.56-16.17z"/><path fill="#34A853" d="M24 46c5.94 0 10.92-1.97 14.56-5.33l-7.11-5.52c-1.97 1.32-4.49 2.1-7.45 2.1-5.73 0-10.58-3.87-12.31-9.07H4.34v5.7C7.96 41.07 15.4 46 24 46z"/><path fill="#FBBC05" d="M11.69 28.18C11.25 26.86 11 25.45 11 24s.25-2.86.69-4.18v-5.7H4.34A21.991 21.991 0 0 0 2 24c0 3.55.85 6.91 2.34 9.88l7.35-5.7z"/><path fill="#EA4335" d="M24 10.75c3.23 0 6.13 1.11 8.41 3.29l6.31-6.31C34.91 4.18 29.93 2 24 2 15.4 2 7.96 6.93 4.34 14.12l7.35 5.7c1.73-5.2 6.58-9.07 12.31-9.07z"/><path fill="none" d="M2 2h44v44H2z"/></symbol><symbol viewBox="0 0 1024 1024" id="jd"><path fill="#CB111A" d="M642 827H457V197h185c153 0 278 141 278 315S795 827 642 827zm0-556H530v481h112c113 0 203-109 203-242s-92-239-203-239zM142 827h-38v-74h37c82 0 148-65 148-148V197h73v408c2 122-98 222-220 222z"/></symbol><symbol viewBox="0 0 1024 1024" id="reddit"><path fill="#FF4500" d="M662 683c-35 0-65-29-65-64s30-64 65-64 63 29 63 64-28 64-63 64m13 125c-35 31-88 45-162 45h-2c-74 0-127-14-162-45a22 22 0 0 1 0-33 30 30 0 0 1 38 0c24 21 65 31 124 31h2c59 0 100-10 124-31a30 30 0 0 1 38 0 22 22 0 0 1 0 33M299 619c0-35 29-64 64-64s64 29 64 64a64 64 0 0 1-64 64c-35 0-64-29-64-64m554-448a43 43 0 0 1 0 85 43 43 0 0 1 0-85m171 353c0-71-55-128-123-128-29 0-56 10-78 28-75-49-170-78-272-85l53-175 147 36c3 56 48 100 102 100 57 0 103-49 103-108S910 85 853 85c-39 0-74 24-91 58l-170-41a28 28 0 0 0-33 19l-66 218c-110 2-214 32-294 84a119 119 0 0 0-76-27C55 396 0 453 0 524c0 43 21 82 53 105a234 234 0 0 0-2 31c0 88 50 170 139 231 86 58 200 90 320 90s234-32 320-90c89-61 139-143 139-231l-2-28a129 129 0 0 0 57-108"/></symbol><symbol viewBox="0 0 1024 1024" id="sogou"><path fill="#F14919" d="M716.843 970.24 759.04 1024c66.603-28.843 124.843-69.12 172.843-121.643l-40.363-56.234A439.979 439.979 0 0 1 717.44 970.24h-.597zM512 947.157c-246.4 0-446.08-197.077-446.08-441.6C65.92 262.4 265.6 65.28 512 65.28s446.123 198.4 446.123 441.6c0 108.8-40.363 208.683-106.966 285.44l40.32 53.803C972.843 756.437 1024 637.397 1024 506.88 1024 225.92 794.88 0 512 0S0 226.603 0 505.6c0 280.32 229.12 506.88 512 506.88 72.96 0 142.08-14.763 204.843-42.24l-41.003-53.76c-51.2 19.2-106.24 30.677-163.84 30.677zm256-407.594c-96-79.36-227.84-89.643-332.843-151.723-32-20.437-6.314-59.52 25.686-60.8 115.157-19.2 229.077 26.88 336.597 64l6.443-113.28c-134.443-48.64-280.32-80-422.443-57.6-51.2 12.8-102.4 28.8-138.837 66.56-49.963 51.2-41.003 143.36 16.597 184.32 95.403 74.88 220.843 85.803 325.163 143.36 40.96 16.64 23.68 71.68-16.683 75.52-124.8 23.68-247.68-30.763-355.2-89.6-1.28 43.52-2.56 85.76-2.56 128 136.32 60.117 288 88.277 435.2 65.237 49.92-9.6 101.12-25.6 137.6-62.037 52.437-51.2 47.403-149.803-14.08-192H768z"/></symbol><symbol viewBox="0 0 300 300" id="soulplus"><rect width="300" height="300" fill="#c00" rx="60" ry="60"/><path fill="#fff" d="M177.264 833.271c2.921 5.188 1.11 18.761-6.247 27.3-.489.567-8.142 10.765-4.565 13.681 2.971 2.422 3.006 3.02 11.544-1.534 6.349-3.386 7.845-5.581 2.994-10.507-1.885-1.913-4.477-5.742-3.806-6.182 2.675-1.751 9.862 3.11 14.008 8.472 4.598 5.947 3.74 10.369-2.848 14.682-4.742 3.105-22.56 10.656-27.153 7.333-12.783-5.914-2.441-22.693 3.31-29.356 4.366-5.208 4.582-10.008 4.606-14.307.022-3.991 3.43-7.217 4.333-8.859-3.28.437-7.145 1.074-10.846 1.468-10.37 1.105-19.086 1.099-7.152 6.364 3.942 1.739 6.948 6.284 6.046 12.564-.78 5.429-5.245 11.154-8.911 12.518 0 0-13.223 3.542-11.598 10.974 1.203 5.504 11.327 15.386 23.639 25.126 4.34 3.434 3.847 5.533 3.847 5.533l-8.443-.001s-24.875-15.509-26.74-28.441c-.505-3.499-3.1-10.178 9.181-17.081 8.985-2.913 11.461-13.019 7.717-16.07-4.11-3.242-4.628-1.452-9.402 1.763-2.57 1.731-5.043 3.816-5.616 4.318-3.741 3.276-6.468 7.569-10.18 10.877-1.575 1.403-6.857 7.372-7.164 13.151-.46 8.652.569 12.351 5.053 20.323 1.43 2.541 3.149 9.67 2.581 11.159l-7.746-.005c-2.058.257-5.113-8.785-5.769-10.238-4.474-9.903-3.327-22.446-1.887-26.471 1.364-3.813 4.124-8.962 7.685-12.569 3.562-3.607 6.059-6.267 10.225-10.452 11.949-12.001 15.901-11.06 13.081-14.51-1.384-1.692-4.363-3.077-4.363-3.077-3.186-.978-8.264-3.402-11.997-7.7-4.713-5.816-4.482-17.507-4.779-17.199-1.836 1.902-7.427 2.543-14.753 2.543-10.147 0-10.552.167-10.552 4.353-2.698 12.236-5.829 20.933-13.742 27.515-5.936 4.939-8.583 4.715-11.879 10.099-3.458 6.487 9.73 11.527 16.88 5.887 1.479-1.167 7.79-5.151 8.752-13.394 1.095-9.383 9.412-19.074 11.632-16.55 7.881 8.959 1.657 13.706-1.766 22.496-5.447 13.988-9.664 16.102-18.169 20.305-16.473 8.14-26.936-6.696-29.404-10.946v-9.689c2.512-4.626 9.602-9.772 17.48-14.929 2.104-1.378 5.516-7.372 7.582-13.321 4.265-12.275 3.44-12.043-9.829-12.363-6.782-.163-9.953-.962-15.233-1.926v-5.363c1.212-2.07 6.203-1.107 32.011-1.107 18.26 0 28.066-.916 31.315.392 2.233-9.174 4.255-10.673 7.623-14.204 3.624-3.8 8.339-5.134 10.835-5.461 12.218-1.6 13.645-4.387 13.645-9.279 0-1.804 1.433-3.467 2.318-4.019h7.671c1.302 0 .515 1.806 1.382 5.727 1.034 4.678 2.065 5.291 11.371 6.763 14.718 2.329 18.561 8.173 18.385 27.95-.148 16.472-2.942 22.371-16.193 25.474Zm-29.482-10.801c0-2.355.636-6.366 1.415-8.914 1.192-3.903.598-4.832-3.773-5.89-2.854-.691-7.585.043-10.512.41-7.929.992-7.529 9.38.671 14.749 7.905 5.175 12.199 5.05 12.199-.355Zm31.561.93c1.035-1.842 2.46-5.78 3.166-8.75 1.082-4.556.512-5.618-3.646-6.787-2.71-.762-7.975-1.008-11.7-.546-6.069.753-6.966 1.597-8.639 8.13-2.524 9.857-1.282 11.303 9.711 11.303 7.491 0 9.577-.629 11.108-3.35Zm-30.924-27.45c1.649-5.648-.262-7.911-6.682-7.911-4.193 0-6.368 1.269-8.854 5.163-4.404 6.903-4.531 6.748 5.536 6.748 7.779 0 8.972-.477 10-4Zm32.992.267c.972-4.433-4.334-8.219-12.041-8.593-6.489-.314-6.839-.03-7.513 6.088l-.705 6.418 9.803-.462c7.792-.367 9.937-1.075 10.456-3.451Zm-106.519-7.245c-7.069-.581-17.807-4.653-14.304-6.902 1.611-1.035 28.849-1.355 50.253-1.073 9.711.128 13.75 4.066 7.325 7.142-3.791 1.814-26.092 2.244-43.274.833Z" transform="translate(-120.832 -1630.565) scale(2.12491)"/></symbol><symbol viewBox="0 0 1024 1024" id="stackoverflow"><path fill="#BCBBBB" d="M765 862V622h79v320H125V622h79v240z"/><path fill="#F48023" d="m292 599 392 82 16-79-391-82-17 79zm52-186 363 168 33-72-363-170-33 74zm101-179 307 256 51-61-308-256-50 61zM644 45l-65 48 239 321 64-48L644 45zM284 781h400v-79H284v79z"/></symbol><symbol viewBox="0 0 1024 1024" id="taobao"><path fill="#FD7E2B" d="M349 248c35-59 47-118 47-118l101 40-30 57s8 7 33 4 193-88 308-68c116 20 187 112 187 184v344s-12 105-102 142c-89 37-225 9-225 9l7-57s82 19 132 2c52-16 66-56 66-56V319s-7-42-55-71c-47-29-71-26-122-19-51 8-129 44-129 44l-43 87h295v59H638v74h188v51l-184 7v140l88-38-8-61 72-15 52 140-87 40-11-49s-165 70-231 75c-66 6-132-10-163-55-32-46-24-137-24-137l117 3s-9 52 14 85 76 24 76 24V548l-182-6v-49h184l-2-74-56-11s-47 73-79 71c-30-2-34-44-34-44l99-125-54-5-82 97-62-55s45-40 80-99zm-209 77-62 89s132 66 144 120c10 53-182 213-182 213l138 101s142-252 131-334c-11-84-169-189-169-189zm74-37c45 0 81-37 81-83 0-45-36-82-81-82s-81 37-81 82c0 46 36 83 81 83z"/></symbol><symbol viewBox="0 0 108 108" id="tsdm"><path fill="#01579B" d="m35.742 43.171.24 14.173s-5.682 5.437-7.954 12.249c-1.041 2.933-1.805 8.241-.745 13.113 1.643 6.247 7.657 10.492 7.657 10.492l.675 1.165-.023 10.592s-.252-.053-.669-.212c-2.205-.841-8.886-4.654-14.084-12.606-2.276-4.013-3.987-9.165-4.3-15.709.001-11.96 6.295-20.769 19.203-33.257Z"/><path fill="#19A6E6" d="m34.931 43.982 19.322-19.493.184 14.232-19.506 19.683V43.982Zm.009 49.215s4.126 2.939 7.356 3.489c3.231.55 4.933.467 7.082.172 1.347-.185 3.415-.851 4.827-1.555l-.02 10.748s-2.584 1.376-6.353 1.429c-1.876.026-3.541 0-5.982-.446-2.441-.447-4.216-.998-6.922-2.286l.002-9.885.01-1.666Z"/><path fill="#29B6F6" d="M53.817 24.869 75.554 3.022l.081 14.502-21.818 21.762V24.869Zm14.614 59.317c2.352-2.319 4.72-4.62 7.104-6.904l.085 13.053s-7.802 7.477-9.249 8.563c-1.446 1.086-7.402 5.792-12.581 7.269V95.552s4.696-2.817 6.553-4.125c1.857-1.308 7.086-6.256 8.088-7.241ZM75.542 52.6l.07 10.486-16.234 16.125s-1.993 2.041-4.262-.41c-2.106-1.958-.273-4.132-.273-4.132L75.542 52.6Zm-.009-23.042.023 10.403-15.788 15.673s-1.995 2.08-4.423-.212c-2.429-2.292-.07-4.483-.07-4.483l20.258-21.381Z"/><path fill="#54C5F8" d="M75.136 3.496s5.029-6.482 9.891-.335c4.58 6.119 9.783 12.74 3.603 26.599.056-.056-.307.53.027.949 0 .028 6.007 9.36-.223 21.878-.115 0-.53.67-.084 1.145 0-.027 7.964 12.992-2.626 26.039-6.677 7.04-10.595 11.065-10.595 11.065V77.668l4.002-4.378s5.924-6.314 1.285-15.004l-5.287 5.281.062-10.616 5.024-5.029s3.658-4.443-.302-12.238l-4.784 4.694V29.957l4.108-4.332s4.692-5.447.307-12.154l-4.387 4.536V3.496h-.021Z"/></symbol><symbol viewBox="0 0 1024 1024" id="twitter"><path fill="#55ACEE" d="M1024 186a410 410 0 0 1-121 34 215 215 0 0 0 93-119 414 414 0 0 1-134 52 207 207 0 0 0-153-68 213 213 0 0 0-205 265c-174-9-329-95-433-225a219 219 0 0 0-28 108c0 75 37 141 93 179a206 206 0 0 1-95-27v3c0 105 73 192 169 211a200 200 0 0 1-56 8c-13 0-26-1-39-4 27 86 104 148 196 150A415 415 0 0 1 0 842a585 585 0 0 0 322 97c387 0 598-329 598-613l-1-28c41-31 77-68 105-112"/></symbol><symbol viewBox="0 0 1024 1024" id="weibo"><path fill="#FFF" d="M382 699c-8 0-16 7-17 17-1 9 5 16 14 16 8 0 16-8 18-17 0-10-6-17-15-16zm-58 10c-27 1-51 25-55 53-3 28 15 51 42 50 28 0 53-24 56-53s-16-51-43-50z"/><path fill="#FFF" d="M766 674c-12-128-183-216-383-197C184 496 32 615 44 743c12 127 184 215 383 196 200-19 352-138 339-265zm-251 49c-9 83-89 151-176 151-83 0-139-65-127-143 11-76 84-141 165-145 84-5 147 56 138 137z"/><path fill="#E79014" d="M1022 314A318 318 0 0 0 735 43c-19-2-38 10-40 29-3 18 10 36 28 40 68 15 197 35 231 226 3 19 19 40 43 34 17-3 33-13 25-58zm-302-53a24 24 0 0 0-27 18c-4 13 3 28 17 31 28 6 42 25 46 46 0 0 4 14 17 18 14 4 38-6 31-32-7-36-43-74-84-81z"/><path fill="#E79014" d="M738 160c-30-5-44 17-44 34s12 29 35 35c59 17 98 43 108 112 3 20 22 31 35 31 18 0 32-15 32-33v-2c-11-88-77-161-166-177z"/><path fill="#D62629" d="M732 697c-12 125-189 224-381 219-178-4-296-98-277-207 20-105 165-196 336-206 183-11 333 74 322 194zm-28-198c-7 0-10 1-12-2l4-14c11-27 28-82-7-113-23-20-120-36-222 36-5 3-14 11-18 9-4-1-5-6-6-16-3-50 39-191-71-179C256 239 98 424 53 513c-159 317 71 445 297 452 245 7 494-132 526-318 22-124-124-149-172-148z"/><path fill="#030000" d="M377 586c-81 4-154 69-165 145-12 78 44 143 127 143 87 0 167-68 176-151 9-81-54-142-138-137zm-10 173c-3 29-28 53-56 53-27 1-45-22-42-50 4-28 28-52 55-53s46 21 43 50zm12-27c-9 0-15-7-14-16 1-10 9-17 17-17 9-1 15 6 15 16-2 9-10 17-18 17z"/></symbol><symbol viewBox="0 0 512 512" id="wikipedia"><rect width="512" height="512" fill="#fff" rx="64" ry="64"/><path fill="#090909" d="M456 117h-83l-6 1v8l4 2 3 1h8c8 1 11 3 14 6s4 9 1 16l-73 191-2-1-47-104 1-3 38-78 11-19c4-6 6-7 17-8 2 0 3-1 3-3v-8l-1-1h-66v11l2 1h3c9 1 13 3 14 5 2 3 3 5-2 17l-29 64-27-59c-8-19-11-25 2-26l4-1c3 0 2-1 2-3v-9h-71v9c0 2 2 3 5 3 13 2 12 3 24 30l8 16 27 59 8 20-40 87h-2s-62-144-80-192l-3-11c0-5 4-8 12-8l12-1c3 0 7-1 7-3v-8l-4-1H59l-3 1v8c0 2 2 3 5 3 10 1 16 2 19 5s6 10 11 21c22 60 70 166 94 227 6 16 15 19 25-1 11-21 32-69 48-104l44 104c7 17 16 19 25 1l90-226c3-8 7-15 12-19 5-5 13-7 24-8 2 0 3-1 3-3v-9z"/></symbol><symbol viewBox="0 0 1024 1024" id="youtube"><path fill="#DC2217" d="M1014 307s-10-70-41-101c-39-41-83-41-103-44-143-10-358-10-358-10s-215 0-358 10c-20 3-64 3-103 44-31 31-41 101-41 101S0 390 0 473v78c0 83 10 165 10 165s10 71 41 102c39 41 90 40 113 44 82 8 348 10 348 10s215 0 358-11c20-2 64-2 103-43 31-31 41-102 41-102s10-82 10-165v-78c0-83-10-166-10-166z"/><path fill="#FFF" d="M406 645V357l277 144-277 144z"/></symbol><symbol viewBox="0 0 1024 1024" id="zhihu"><path fill="#0066FF" d="m539 770-76 48-96-151c-20 63-53 120-97 173-18 21-37 41-58 62l-40 37-64-64 42-39c19-18 36-35 51-54 57-69 92-145 97-236H118v-90h180V275h-39c-31 58-70 101-118 129l-46-77c62-38 109-117 137-242l88 20c-7 28-14 55-22 80h203v90H388v181h113v90H397l142 224zm173-3 50-41h77V275H659v451h33l20 41zM569 185h360v632H794l-113 90-45-90h-67V185z"/></symbol></svg>